<svg id="Isolation_Mode" data-name="Isolation Mode" xmlns="http://www.w3.org/2000/svg" viewBox="0 0 510.24 547"><defs><style>.cls-1{fill:#fff;}</style></defs><title>mansour-logo-white</title><path class="cls-1" d="M187.34,443.06H109.77c-.13-2.12-.36-4.05-.35-6,0-12.68,0-25.36.17-38,.22-20.46-6.47-38.56-18.41-54.95-10.6-14.54-20.81-29.34-33.45-42.32C46,289.71,42.21,274.32,40.28,258.05c-4.14-34.81-3.14-69.57-.23-104.37.46-5.48,1.14-11,1.15-16.46,0-15.74,5.83-29.28,15.52-41.3,5.11-6.35,11-12.13,15.93-18.59,9.85-12.79,19.22-25.95,29-38.81,6.15-8.08,12.5-16,19.08-23.77,3.82-4.49,8.84-7.46,15-5.56,4.67,1.44,8.32,9,6.86,15.85-1.37,6.39-3.38,13.07-6.86,18.5C125.22,60,114.67,76.47,102.62,91.74c-16.48,20.86-24.92,43.5-23.11,70.33,1.28,18.78.67,37.68,1,56.52.14,7.17.6,14.33.91,21.5.28,6.47,4.13,10,10.68,9.77,10.75-.36,17.9-6.57,18.18-17.28.3-11.82-.61-23.66-.87-35.49-.49-22.24.74-44.32,5.81-66.09a13.58,13.58,0,0,1,8.69-10.13c8-3.3,12-1.49,14.8,6.69,4.79,14.07,4.05,28.64,3.58,43.13A232,232,0,0,0,145.8,220c1.5,8.25,5.16,15.25,10.11,22,7.67,10.46,15.59,20.94,21.54,32.39,9.31,17.92,11.93,37.91,12,57.78.06,31-1.34,62-2.06,93C187.22,431,187.34,436.81,187.34,443.06Z"/><path class="cls-1" d="M323.42,443.28c0-11.69.27-22.82-.06-33.94-.52-17.5-1.52-35-2.16-52.48-.83-22.93.76-45.64,6.62-67.94a90.31,90.31,0,0,1,21.12-38.76c15.67-16.81,18.66-37.08,19.61-58.23.66-14.82-.42-29.71.35-44.52.41-7.83,3-15.57,4.78-23.32.8-3.5,3.41-4.57,6.81-4.55,8,0,13.6,4.36,15.41,12.14,6.86,29.58,6.66,59.52,4.6,89.57a65.56,65.56,0,0,0,.52,13.93,17.52,17.52,0,0,0,19.51,14.61c6.17-.68,9-3.75,9.14-10.31q.66-34,1.18-68c.13-9.15.11-18.31.09-27.46,0-15.67-6.39-29-15.13-41.56-13.64-19.55-27.42-39-40.54-58.9-3.45-5.24-4.77-11.91-6.95-18a8.75,8.75,0,0,1-.2-3.47c.41-5.39,1.91-10.68,7.15-12.87s10.27.49,13.91,4.45c5.63,6.13,11.5,12.2,16.07,19.1,13.55,20.47,28.2,40,44.95,58,8.78,9.43,15.81,20.39,18.17,33.42a159,159,0,0,1,2.27,22.86c.94,28,2.3,56,2,83.94a217.19,217.19,0,0,1-5.45,45.06c-1.87,8.39-6.86,16.78-12.46,23.48-11.42,13.7-22.55,27.54-33.11,41.93-13.19,18-20.75,37.42-20.29,59.85.24,11.83.08,23.68.41,35.51.13,4.7-.81,6.68-6.25,6.59-22-.36-44-.15-66.06-.15Z"/><path class="cls-1" d="M211.67,230H176.26V51.69h57.49Q244.43,104.26,255,156.54l1,.15c1.16-5.35,2.37-10.69,3.46-16.06,5.74-28.24,11.4-56.49,17.27-84.7.35-1.67,2.2-4.29,3.39-4.31,18-.27,36-.19,54.43-.19V229.89H299.62V99.54l-1.17-.14c-1.52,7.24-3.09,14.48-4.56,21.73q-10.65,52.4-21.18,104.81c-.64,3.22-1.86,4.45-5.22,4.36-8-.22-16-.2-24,0-3.32.08-4.54-1-5.2-4.36Q226,164.67,213.49,103.48a11.39,11.39,0,0,0-1.82-4.58Z"/><path class="cls-1" d="M8.93,474.29H34.56l9.89,38.38,9.81-38.38H79.87v63.08h-16V489.26L51.62,537.37H37.17L24.89,489.26v48.11h-16Z"/><path class="cls-1" d="M131.08,527H109l-3.07,10.42H86l23.71-63.08h21.25l23.7,63.08H134.23Zm-4-13.64-7-22.67-6.89,22.67Z"/><path class="cls-1" d="M161,474.29h18.19l23.75,34.9v-34.9h18.37v63.08H202.91l-23.62-34.64v34.64H161Z"/><path class="cls-1" d="M230.83,516.5l18.54-1.16a14.16,14.16,0,0,0,2.45,6.88,10.32,10.32,0,0,0,8.61,3.83,9.51,9.51,0,0,0,6.43-2,5.62,5.62,0,0,0,.11-8.93q-2.16-1.93-10-3.65-12.83-2.89-18.29-7.66a15.42,15.42,0,0,1-5.5-12.18,16.63,16.63,0,0,1,2.81-9.19,18.73,18.73,0,0,1,8.48-6.79q5.65-2.47,15.51-2.48,12.09,0,18.43,4.5T286,492l-18.37,1.08c-.48-2.84-1.51-4.9-3.07-6.2a9.9,9.9,0,0,0-6.48-1.93,7.83,7.83,0,0,0-5.12,1.44,4.44,4.44,0,0,0-1.72,3.51,3.55,3.55,0,0,0,1.42,2.71q1.38,1.25,6.54,2.32,12.78,2.76,18.31,5.57a19.3,19.3,0,0,1,8,7,17.75,17.75,0,0,1,2.52,9.34A20,20,0,0,1,284.69,528a20.92,20.92,0,0,1-9.38,7.76q-6,2.65-15.18,2.65-16.09,0-22.29-6.2A24.46,24.46,0,0,1,230.83,516.5Z"/><path class="cls-1" d="M295.4,505.87q0-15.45,8.61-24.05t24-8.61q15.75,0,24.26,8.46t8.52,23.68q0,11.07-3.72,18.14a26.52,26.52,0,0,1-10.75,11q-7,3.94-17.54,3.94-10.67,0-17.66-3.4a26.54,26.54,0,0,1-11.33-10.76Q295.4,516.93,295.4,505.87Zm19.49.09q0,9.54,3.55,13.72a12,12,0,0,0,9.66,4.17q6.28,0,9.72-4.08t3.44-14.68q0-8.89-3.59-13a12.27,12.27,0,0,0-9.74-4.11,11.85,11.85,0,0,0-9.47,4.17Q314.89,496.33,314.89,506Z"/><path class="cls-1" d="M412.29,474.29h19.44v37.58A31.68,31.68,0,0,1,430,522.42a22.73,22.73,0,0,1-5.46,8.69,21.69,21.69,0,0,1-7.81,5.22,39.18,39.18,0,0,1-13.64,2.11,85.65,85.65,0,0,1-10-.64,26.42,26.42,0,0,1-9.1-2.56,22.81,22.81,0,0,1-6.69-5.44,19.88,19.88,0,0,1-4.15-7.27,37.49,37.49,0,0,1-1.81-10.66V474.29h19.45v38.47q0,5.16,2.86,8.06c1.9,1.94,4.55,2.91,7.93,2.91a10.71,10.71,0,0,0,7.9-2.86q2.86-2.86,2.86-8.11Z"/><path class="cls-1" d="M444.9,537.37V474.29h32.48q9,0,13.81,1.55a14.68,14.68,0,0,1,7.7,5.74A17.8,17.8,0,0,1,493.42,507a23.42,23.42,0,0,1-6.84,2.5,19.4,19.4,0,0,1,5.07,2.32,19.8,19.8,0,0,1,3.12,3.32,24.72,24.72,0,0,1,2.73,3.92l9.43,18.28h-22L474.5,518.09q-2-3.75-3.53-4.86a8.17,8.17,0,0,0-4.78-1.47h-1.72v25.61Zm19.57-37.52h8.22a29,29,0,0,0,5.16-.87,5.09,5.09,0,0,0,3.16-2,6.38,6.38,0,0,0-.71-8.35Q478.37,487,473,487h-8.56Z"/></svg>